HIERARCHY
ROOT hip
{
  OFFSET 0 0 0
  CHANNELS 6 Xposition Yposition Zposition Zrotation Yrotation Xrotation
  JOINT abdomen
  {
    OFFSET 0 20.6881 -0.73152
    CHANNELS 3 Zrotation Xrotation Yrotation
    JOINT chest
    {
      OFFSET 0 11.7043 -0.48768
      CHANNELS 3 Zrotation Xrotation Yrotation
      JOINT neck
      {
        OFFSET 0 22.1894 -2.19456
        CHANNELS 3 Zrotation Xrotation Yrotation
        JOINT head
        {
          OFFSET -0.24384 7.07133 1.2192
          CHANNELS 3 Zrotation Xrotation Yrotation
          JOINT leftEye
          {
            OFFSET 4.14528 8.04674 8.04672
            CHANNELS 3 Zrotation Xrotation Yrotation
            End Site
            {
              OFFSET 1 0 0
            }
          }
          JOINT rightEye
          {
            OFFSET -3.6576 8.04674 8.04672
            CHANNELS 3 Zrotation Xrotation Yrotation
            End Site
            {
              OFFSET 1 0 0
            }
          }
        }
      }
      JOINT rCollar
      {
        OFFSET -2.68224 19.2634 -4.8768
        CHANNELS 3 Zrotation Xrotation Yrotation
        JOINT rShldr
        {
          OFFSET -8.77824 -1.95073 1.46304
          CHANNELS 3 Zrotation Xrotation Yrotation
          JOINT rForeArm
          {
            OFFSET -28.1742 -1.7115 0.48768
            CHANNELS 3 Zrotation Xrotation Yrotation
            JOINT rHand
            {
              OFFSET -22.5879 0.773209 7.07136
              CHANNELS 3 Zrotation Xrotation Yrotation
              JOINT rThumb1
              {
                OFFSET -1.2192 -0.487915 3.41376
                CHANNELS 3 Zrotation Xrotation Yrotation
                JOINT rThumb2
                {
                  OFFSET -3.37035 -0.52449 3.41376
                  CHANNELS 3 Zrotation Xrotation Yrotation
                  End Site
                  {
                    OFFSET -1.78271 -1.18214 1.43049
                  }
                }
              }
              JOINT rIndex1
              {
                OFFSET -7.75947 0.938293 5.60832
                CHANNELS 3 Zrotation Xrotation Yrotation
                JOINT rIndex2
                {
                  OFFSET -2.54057 -0.884171 1.56538
                  CHANNELS 3 Zrotation Xrotation Yrotation
                  End Site
                  {
                    OFFSET -1.62519 -0.234802 1.16502
                  }
                }
              }
              JOINT rMid1
              {
                OFFSET -8.24714 1.18213 3.41376
                CHANNELS 3 Zrotation Xrotation Yrotation
                JOINT rMid2
                {
                  OFFSET -3.10165 -0.590103 1.0647
                  CHANNELS 3 Zrotation Xrotation Yrotation
                  End Site
                  {
                    OFFSET -2.48547 -0.328903 0.83742
                  }
                }
              }
              JOINT rRing1
              {
                OFFSET -8.82822 0.546677 1.51678
                CHANNELS 3 Zrotation Xrotation Yrotation
                JOINT rRing2
                {
                  OFFSET -2.60934 -0.819778 -0.0198488
                  CHANNELS 3 Zrotation Xrotation Yrotation
                  End Site
                  {
                    OFFSET -2.33842 -0.294052 0.168128
                  }
                }
              }
              JOINT rPinky1
              {
                OFFSET -8.27202 -0.0477905 -0.4584
                CHANNELS 3 Zrotation Xrotation Yrotation
                JOINT rPinky2
                {
                  OFFSET -1.82734 -0.647385 -0.700984
                  CHANNELS 3 Zrotation Xrotation Yrotation
                  End Site
                  {
                    OFFSET -1.69225 -0.51767 -0.607171
                  }
                }
              }
            }
          }
        }
      }
      JOINT lCollar
      {
        OFFSET 2.68224 19.2634 -4.8768
        CHANNELS 3 Zrotation Xrotation Yrotation
        JOINT lShldr
        {
          OFFSET 8.77824 -1.95073 1.46304
          CHANNELS 3 Zrotation Xrotation Yrotation
          JOINT lForeArm
          {
            OFFSET 28.1742 -1.7115 0.48768
            CHANNELS 3 Zrotation Xrotation Yrotation
            JOINT lHand
            {
              OFFSET 22.5879 0.773209 7.07136
              CHANNELS 3 Zrotation Xrotation Yrotation
              JOINT lThumb1
              {
                OFFSET 1.2192 -0.487915 3.41376
                CHANNELS 3 Zrotation Xrotation Yrotation
                JOINT lThumb2
                {
                  OFFSET 3.37035 -0.52449 3.41376
                  CHANNELS 3 Zrotation Xrotation Yrotation
                  End Site
                  {
                    OFFSET 1.78271 -1.18214 1.43049
                  }
                }
              }
              JOINT lIndex1
              {
                OFFSET 7.75947 0.938293 5.60832
                CHANNELS 3 Zrotation Xrotation Yrotation
                JOINT lIndex2
                {
                  OFFSET 2.54057 -0.884171 1.56538
                  CHANNELS 3 Zrotation Xrotation Yrotation
                  End Site
                  {
                    OFFSET 1.62519 -0.234802 1.16502
                  }
                }
              }
              JOINT lMid1
              {
                OFFSET 8.24714 1.18213 3.41376
                CHANNELS 3 Zrotation Xrotation Yrotation
                JOINT lMid2
                {
                  OFFSET 3.10165 -0.590103 1.0647
                  CHANNELS 3 Zrotation Xrotation Yrotation
                  End Site
                  {
                    OFFSET 2.48547 -0.328903 0.83742
                  }
                }
              }
              JOINT lRing1
              {
                OFFSET 8.82822 0.546677 1.51678
                CHANNELS 3 Zrotation Xrotation Yrotation
                JOINT lRing2
                {
                  OFFSET 2.60934 -0.819778 -0.0198488
                  CHANNELS 3 Zrotation Xrotation Yrotation
                  End Site
                  {
                    OFFSET 2.33842 -0.294052 0.168128
                  }
                }
              }
              JOINT lPinky1
              {
                OFFSET 8.27202 -0.0477905 -0.4584
                CHANNELS 3 Zrotation Xrotation Yrotation
                JOINT lPinky2
                {
                  OFFSET 1.82734 -0.647385 -0.700984
                  CHANNELS 3 Zrotation Xrotation Yrotation
                  End Site
                  {
                    OFFSET 1.69225 -0.51767 -0.607171
                  }
                }
              }
            }
          }
        }
      }
    }
  }
  JOINT rButtock
  {
    OFFSET -8.77824 4.35084 1.2192
    CHANNELS 3 Zrotation Xrotation Yrotation
    JOINT rThigh
    {
      OFFSET 0 -1.70687 -2.19456
      CHANNELS 3 Zrotation Xrotation Yrotation
      JOINT rShin
      {
        OFFSET 0 -36.8199 0.73152
        CHANNELS 3 Zrotation Xrotation Yrotation
        JOINT rFoot
        {
          OFFSET 0.73152 -45.1104 -5.12064
          CHANNELS 3 Zrotation Xrotation Yrotation
          End Site
          {
            OFFSET -1.1221 -3.69964 12.103
          }
        }
      }
    }
  }
  JOINT lButtock
  {
    OFFSET 8.77824 4.35084 1.2192
    CHANNELS 3 Zrotation Xrotation Yrotation
    JOINT lThigh
    {
      OFFSET 0 -1.70687 -2.19456
      CHANNELS 3 Zrotation Xrotation Yrotation
      JOINT lShin
      {
        OFFSET 0 -36.8199 0.73152
        CHANNELS 3 Zrotation Xrotation Yrotation
        JOINT lFoot
        {
          OFFSET -0.73152 -45.1104 -5.12064
          CHANNELS 3 Zrotation Xrotation Yrotation
          End Site
          {
            OFFSET 1.1221 -3.69964 12.103
          }
        }
      }
    }
  }
}
MOTION
Frames:	7
Frame Time:	0.03333
-18.5137 59.54279999999999 1.899 152.575488 -74.701328 -150.406194 -11.249283 10.685736 -123.475421 5.312598 6.939922 117.205669 -19.807863 18.6391 -26.345802 28.863431 -16.41491 0.299758 15.798255 5.473505 38.020406 -22.800252 1.790791 -8.864234 -136.632284 45.275232 139.20181 -121.539928 42.678889 96.554919 -51.864003 -59.070149 -133.302114 135.717051 -54.135533 119.630074 -32.135677 19.809544 14.893675 -52.303762 14.577891 38.921693 -43.053258 32.627941 22.125192 173.587613 -28.719601 84.552058 -157.253278 5.219727 130.94659 19.591255 -36.865205 5.109155 -152.347095 22.801116 169.214042 -170.77702 50.208825 164.467883 -149.427066 38.330281 -151.921076 -152.132599 -10.206933 -131.044453 33.920689 60.648909 -37.706389 -88.475724 -16.18191 -66.032479 -177.352972 1.238162 -100.961154 -169.555575 -22.711309 -140.976894 166.48744 0.542261 -87.781994 131.970697 16.302232 -54.734325 5.537663 18.882076 -12.428777 -32.871076 -80.914255 -11.628567 4.804987 8.678624 -6.557613 164.761919 -25.782055 -146.66203 -6.133208 -12.54478 -4.635959 -11.014736 -13.823419 1.201986 117.88139 60.267575 -168.174112 132.735091 12.01104 153.714459 -114.258222 54.279208 -33.493358 121.966661 -21.607264 50.39231 66.941478 63.52447 -156.613384 116.759923 -63.855339 -141.519782 -144.419344 66.411092 -18.503926 154.514028 77.560439 3.680147 -10.592075 39.453818 81.878486 163.675972 -21.699254 21.187162
-19.2191 59.310399999999994 1.7056000000000002 152.47736 -74.945892 -150.424776 -13.86321 9.905609 168.09112 -7.022329 5.940003 -173.368918 -1.995344 28.260869 105.758671 -36.619108 10.270689 -134.164676 13.461252 4.737823 38.635144 -22.505159 1.785352 -8.955906 6.07907 -41.035898 -4.314748 69.859833 52.573716 -32.83252 173.916154 13.854644 95.560292 161.915247 -22.444813 142.049452 3.226747 -5.500433 4.883794 -5.484523 -12.695573 0.951047 -99.745298 41.942413 72.702816 0.370195 -12.77359 10.536459 -112.988385 47.034757 98.508824 36.387672 -57.612745 10.892532 -151.411448 15.947363 171.895864 -22.851203 -66.934058 -26.294603 -1.171211 -7.545959 -1.657967 -134.850494 29.286045 -162.574294 -1.955416 -4.689671 1.053396 98.64363 -35.292511 178.68421 -174.479068 26.322434 133.455385 14.672237 37.025223 -1.612689 9.059797 4.065142 -2.300877 3.520202 15.957398 -20.339308 -18.609903 -13.771809 0.156975 2.277592 -38.498123 -1.025053 135.978418 35.842946 -121.460414 -148.656683 -65.989302 -115.251749 -7.734171 -40.338427 3.139679 153.189848 20.066322 -169.86627 23.666103 68.666022 -68.837648 -41.791124 60.607452 -3.415576 -1.500311 9.172208 0.127835 -70.821926 -60.503039 -70.508523 7.141683 77.929829 77.619314 -16.249454 21.356594 -62.327688 48.135323 17.462176 26.225544 -35.892226 10.055954 93.807819 47.612659 -16.051812 110.332701 83.170994 15.392133 156.956358
-20.0507 59.2016 1.6542000000000001 152.507794 -73.860143 -150.369178 -12.020509 10.965645 -100.110231 7.87053 4.805703 93.552122 -19.652672 19.099294 -21.513709 27.695281 -19.301555 -4.654977 13.166409 4.724843 39.341697 -22.820925 1.664041 -8.231348 -149.079504 20.946078 152.491188 126.392602 -43.909939 144.731369 -142.415923 40.515848 73.484731 135.727884 -54.038029 119.800617 -5.19376 2.738423 5.165637 -19.015528 -0.977624 14.012882 -152.559932 4.610296 114.353322 -39.577146 40.769942 2.371485 43.314667 -62.434196 24.116268 -58.676477 67.108744 48.654744 -151.041351 13.952805 172.81795 -4.865709 39.113755 -1.219233 -15.317792 -32.934006 -17.419948 -135.925589 21.677129 -154.538332 46.146217 -86.235411 69.412761 91.365734 -29.595488 99.01339 -159.467986 -0.012194 140.748297 24.914577 53.221495 -8.957289 -6.74069 -10.132947 -1.239708 133.449837 -85.555952 -140.303572 170.963176 -51.86309 -112.759446 -172.27748 -41.468351 -72.567064 159.230261 -1.47316 -137.54871 164.382931 -0.039675 -139.66295 17.006646 -74.27944 36.540042 -13.770737 -34.982766 5.785159 117.731692 63.857824 -168.973321 130.237033 -1.188128 143.994078 -32.528755 12.817314 -19.111021 15.060709 -73.023257 0.943719 50.087708 70.941247 32.932545 -73.821383 -86.248167 -167.42338 -10.21116 6.957056 -10.835521 18.117319 6.325548 100.019118 36.673513 6.275076 -93.258714 -91.366499 -63.754119 -11.460378
-20.9005 59.2785 1.7166000000000001 151.827048 -73.491761 -149.519094 -12.718425 10.394337 -96.299161 7.846956 4.637166 89.689409 -21.777985 20.60549 -33.072875 33.15146 -13.550949 5.640522 12.258602 4.37387 39.151857 -24.229979 1.843004 -8.570608 -2.599532 11.089006 5.214188 -122.479556 -14.217121 165.153804 9.335269 -14.270639 -82.417784 159.707168 -26.942102 140.345543 1.390412 -1.006203 4.727834 3.015232 -22.125786 1.732438 -21.505666 9.296246 4.672227 -112.938219 8.732672 95.185322 -162.723524 -6.656332 133.74714 169.309647 -54.386383 132.999545 -15.442875 45.053975 22.071754 11.416376 3.834748 9.000776 -148.808881 60.553068 -154.874018 -3.820432 7.291949 -7.675377 156.669805 -35.618147 -168.142803 -132.386103 14.687765 156.617193 -124.000846 -20.067947 -93.520965 171.617043 34.028825 -140.423136 -0.784167 -4.605039 -0.974006 -47.010524 -56.207788 20.433465 -25.895568 -27.916955 -0.127349 -154.065133 -23.063909 -109.325742 -4.844521 -12.715605 -2.367867 3.528083 21.253514 -0.8437 137.357077 16.120103 -168.275765 -17.941515 57.560829 6.338814 80.11928 -69.102159 86.085983 128.678821 86.999854 -152.064808 -1.186689 7.337073 0.094936 -70.491501 -63.192962 -163.20225 -87.087577 -9.019979 -79.043742 120.35785 13.204082 -171.799121 140.095584 65.614263 29.509912 -112.34319 71.167979 36.009105 49.141821 5.957121 73.672493 -50.474365 -22.143673 -135.742941
-21.706500000000002 59.223800000000004 1.8180999999999998 151.512082 -73.292365 -149.076262 -13.065848 10.053542 -96.263843 7.763087 4.740857 89.809309 -24.816396 30.721344 -92.745702 40.186248 23.165922 54.324095 11.644619 4.094309 38.635545 -25.193541 2.124491 -9.486302 -12.905452 37.658269 15.432021 -118.578798 6.474801 144.050594 9.709151 -12.916588 -81.915246 160.064105 -26.590364 140.502309 5.405278 -3.630263 4.800019 -37.904484 11.402164 26.59392 -163.462353 -10.997123 119.214002 -154.346083 52.050703 108.169455 -13.531288 19.960785 15.46535 178.720789 -55.572651 140.659426 -148.243213 16.891721 172.940249 -155.74255 80.703105 157.988328 -11.869928 -34.842024 -16.596516 10.884209 41.865664 21.971115 -5.662252 -61.429196 13.055635 -85.97524 33.241354 58.205464 -160.078178 -12.566182 -97.935136 -174.789987 -4.358944 -142.865981 39.703503 26.691971 -14.701849 97.105536 -17.071571 -82.653888 133.747141 -0.565302 -111.663202 147.993884 -52.18402 -115.693713 5.150074 11.092168 -6.58327 171.260913 -35.193829 -148.198411 139.526776 6.530439 -172.476773 -29.197092 79.746203 12.116355 103.849122 65.724902 -153.80102 123.85057 5.821487 142.175393 -178.243296 67.873303 -1.418521 154.198456 -5.188507 -84.426918 -73.765004 4.100018 109.318072 -111.298509 -9.808939 24.352568 12.458993 6.297989 4.342369 -3.182625 4.0957 -76.872007 -46.889253 10.8584 -143.794286 -174.798722 0.053416 91.075014
-22.4606 59.1186 1.8884 151.671882 -73.170821 -149.201168 -13.392666 11.427444 -60.46026 10.467673 -1.201534 54.662092 -24.951334 29.861088 -86.290297 41.195469 19.01799 48.526949 11.67745 3.989742 37.619351 -25.779155 2.387253 -10.404833 -12.081296 36.140131 14.198016 36.388481 18.66801 35.97053 0.400462 -43.745149 47.356322 -4.460571 33.241272 0.182974 -1.110343 1.817184 5.927153 -2.237094 -15.232456 5.156887 -125.351387 33.033776 92.781839 -4.599919 -20.049246 7.788245 121.946484 -72.044507 90.545288 123.428139 -78.085928 92.851991 -148.774244 7.987961 175.599779 2.019446 47.810585 -4.511281 -137.545253 85.832515 -174.538273 2.604843 33.185277 1.036295 -1.063577 6.916633 -1.495053 -73.719587 7.236131 -9.22297 2.82931 4.641679 -43.503437 7.03994 21.887644 1.519099 32.816276 22.881353 -10.711904 -41.702587 -22.763023 -13.674483 153.438729 -29.330505 -117.882923 -8.897674 33.736342 -18.685657 158.386619 -0.507591 -138.360313 -12.549478 -17.209185 -2.435216 -4.871638 -3.075694 -5.208227 131.404074 66.579388 -137.510569 124.191867 -52.12633 135.47278 10.871865 -11.84639 -14.419506 -0.279864 8.504814 -0.323601 -75.417868 -62.115062 33.869632 81.098287 -6.398656 -179.419281 156.269835 -3.49185 -93.296425 -1.424343 7.320473 -4.313646 9.660323 4.093343 -59.039337 -44.207356 5.47422 -37.854634 -166.276542 10.455994 -151.551146
-23.1612 59.006800000000005 1.9135 151.96651 -73.145502 -149.48751 -14.550857 12.490003 -18.859216 8.519416 -8.461087 13.855843 -4.668217 34.58132 138.507543 -33.824309 30.339074 -163.706787 12.421284 4.093433 36.360143 -26.510671 2.601811 -11.012756 -43.620623 61.989612 45.91 -103.237559 25.033417 116.054114 -170.914903 6.284368 -133.510632 -3.583851 30.667399 0.134549 1.322152 -0.198741 5.752954 -7.746908 -9.767794 6.805423 -172.152011 -27.316265 122.450014 -7.202357 -3.143937 -28.620834 -33.272237 40.530318 29.748996 -3.603566 14.773614 4.419744 -3.79021 -14.090173 -0.949687 -143.765073 -49.434007 -179.703629 -148.513761 64.081518 -157.397436 -83.928645 -46.234675 -72.049312 -5.627316 -28.210582 5.660322 99.16744 -15.289811 156.950536 -171.328057 -0.548304 139.404553 15.884383 42.319823 -2.740834 -172.099939 -20.373319 -88.050798 -0.758313 -86.102919 10.242219 -12.616468 -10.604418 -0.090605 -35.671099 -59.726231 -19.574863 168.69466 -25.818303 -140.805149 -0.599902 6.699445 -6.048245 138.191919 14.540783 -169.363853 -21.056194 37.978839 10.819442 114.507579 -62.098322 123.345678 148.878895 66.14411 -174.361578 1.39053 8.718955 0.611529 -76.816332 -62.854316 177.740484 -75.713451 -28.338065 45.000084 -21.889862 -50.260507 68.324646 179.222515 67.581955 3.180207 -159.094367 76.236681 135.236603 23.554491 -29.063328 -159.2898 -162.145812 -46.467603 -64.333063
